# This file uses centimeters as units for non-parametric coordinates.

mtllib palace2.mtl
g default
v -0.070034 0.853545 1.279746
v 1.143310 0.853545 0.579222
v -0.070034 2.120389 1.279746
v 1.143310 2.120389 0.579222
v -1.143310 2.120389 -0.579221
v 0.070035 2.120389 -1.279746
v -1.143310 0.853545 -0.579221
v 0.070035 0.853545 -1.279746
v -0.087543 2.184030 1.599682
v 1.429137 2.184030 0.724026
v 0.087543 2.184030 -1.599683
v -1.429138 2.184030 -0.724027
v 0.476379 2.489533 0.241342
v 0.029181 2.489533 -0.533228
v -0.029181 2.489533 0.533227
v -0.476379 2.489533 -0.241342
vt 0.124502 0.000000
vt 0.124502 0.000000
vt 0.875498 0.000000
vt 0.875498 0.000000
vt 0.875498 0.774360
vt 0.124502 0.774360
vt 0.875498 0.774360
vt 0.124502 0.774360
vt 0.030628 0.813261
vt 0.969372 0.813261
vt 0.969372 0.813261
vt 0.030628 0.813261
vt 0.343543 1.000000
vt 0.343543 1.000000
vt 0.656457 1.000000
vt 0.656457 1.000000
vn 0.000000 -1.000000 0.000000
vn 0.000000 -1.000000 0.000000
vn 0.000000 -1.000000 0.000000
vn 0.000000 -1.000000 0.000000
vn -0.866025 0.000000 0.500000
vn -0.866025 0.000000 0.500000
vn -0.866025 0.000000 0.500000
vn -0.866025 0.000000 0.500000
vn 0.500000 0.000000 0.866025
vn 0.500000 0.000000 0.866025
vn 0.500000 0.000000 0.866025
vn 0.500000 0.000000 0.866025
vn -0.500000 0.000000 -0.866025
vn -0.500000 0.000000 -0.866025
vn -0.500000 0.000000 -0.866025
vn -0.500000 0.000000 -0.866025
vn 0.866025 0.000000 -0.500000
vn 0.866025 0.000000 -0.500000
vn 0.866025 0.000000 -0.500000
vn 0.866025 0.000000 -0.500000
vn 0.113672 -0.975599 -0.187843
vn 0.043689 -0.980303 -0.192608
vn 0.188649 -0.980303 0.058468
vn 0.219513 -0.975599 -0.004521
vn -0.043690 -0.980303 0.192608
vn -0.113672 -0.975599 0.187843
vn -0.219512 -0.975599 0.004521
vn -0.188648 -0.980303 -0.058468
vn -0.266705 0.963766 0.004906
vn 0.137601 0.963766 -0.228521
vn -0.161619 0.946318 -0.279933
vn -0.161619 0.946318 -0.279933
vn 0.266705 0.963766 -0.004906
vn 0.401552 0.886007 -0.231836
vn 0.401552 0.886007 -0.231836
vn -0.137601 0.963766 0.228521
vn 0.161619 0.946318 0.279933
vn 0.161619 0.946318 0.279933
vn -0.401552 0.886007 0.231836
vn -0.401552 0.886007 0.231836
s off
g pCube1
usemtl lambert6SG
f 7/1/1 8/2/2 2/3/3 1/4/4
f 7/1/5 1/4/6 3/5/7 5/6/8
f 3/5/9 1/4/10 2/3/11 4/7/12
f 7/1/13 5/6/14 6/8/15 8/2/16
f 4/7/17 2/3/18 8/2/19 6/8/20
s 1
f 6/8/21 11/9/22 10/10/23 4/7/24
f 4/7/24 10/10/23 9/11/25 3/5/26
f 5/6/27 12/12/28 11/9/22 6/8/21
s 2
f 16/13/29 14/14/30 11/9/31 12/12/32
f 14/14/30 13/15/33 10/10/34 11/9/35
s 1
f 3/5/26 9/11/25 12/12/28 5/6/27
s 2
f 13/15/33 15/16/36 9/11/37 10/10/38
f 14/14/30 16/13/29 15/16/36 13/15/33
f 15/16/36 16/13/29 12/12/39 9/11/40
