# This file uses centimeters as units for non-parametric coordinates.

mtllib palace10.mtl
g default
v -0.070034 0.853545 1.279746
v 1.143310 0.853545 0.579222
v -0.070034 2.120389 1.279746
v 1.143310 2.120389 0.579222
v -1.143310 2.120389 -0.579221
v 0.070035 2.120389 -1.279746
v -1.143310 0.853545 -0.579221
v 0.070035 0.853545 -1.279746
v -0.087543 2.184030 1.599682
v 1.429137 2.184030 0.724027
v 0.087543 2.184030 -1.599683
v -1.429138 2.184030 -0.724027
v 0.476379 2.489533 0.241342
v 0.029181 2.489533 -0.533228
v -0.029181 2.489533 0.533227
v -0.476379 2.489533 -0.241342
v 0.029181 2.821115 -0.533228
v -0.476379 2.821115 -0.241342
v -0.029181 2.821115 0.533227
v 0.476379 2.821115 0.241342
v 0.036476 2.863321 -0.666535
v -0.595474 2.863321 -0.301678
v -0.036476 2.863321 0.666534
v 0.595474 2.863321 0.301678
v 0.315975 2.863321 -0.182428
v 0.279499 2.863321 0.484106
v -0.315975 2.863321 0.182428
v -0.279499 2.863321 -0.484106
v -0.000000 3.156325 -0.000000
v 1.008131 2.120389 0.345084
v 0.205214 2.120389 -1.045608
v 0.205214 0.853545 -1.045608
v 1.008131 0.853545 0.345084
v 1.008131 1.853043 0.345084
v 0.205214 1.853043 -1.045608
v 1.863152 1.853043 -0.148563
v 1.060236 1.853043 -1.539255
v 1.863152 0.853545 -0.148563
v 1.060236 0.853545 -1.539255
v 1.054234 1.881336 0.580627
v 0.050588 1.881336 -1.157739
v 2.070394 1.881336 -0.036432
v 1.066749 1.881336 -1.774798
v 0.558668 1.881336 -1.466268
v 1.568572 1.881336 -0.905615
v 1.562314 1.881336 0.272097
v 0.552411 1.881336 -0.288556
v 1.060491 2.107098 -0.597086
v -0.070034 0.853545 1.279746
v -0.070034 2.120389 1.279746
v 1.143310 0.853545 0.579222
v 1.143310 2.120389 0.579222
v -1.143310 2.120389 -0.579221
v -1.143310 0.853545 -0.579221
v 0.070035 2.120389 -1.279746
v 0.070035 0.853545 -1.279746
v 0.218843 0.853545 1.780097
v 0.218843 1.710342 1.780097
v 1.432187 0.853545 1.079572
v 1.432187 1.710342 1.079572
v -1.432187 1.710342 -1.079572
v -1.432187 0.853545 -1.079572
v -0.218843 1.710342 -1.780097
v -0.218843 0.853545 -1.780097
v -1.073370 0.853545 -0.458082
v -0.139974 0.853545 1.158607
v -0.139974 2.120389 1.158607
v -1.073370 2.120389 -0.458082
v -1.073370 1.863839 -0.458082
v -0.139974 1.863839 1.158607
v -1.905981 1.863839 0.022626
v -0.972586 1.863839 1.639315
v -1.905981 0.853545 0.022626
v -0.972586 0.853545 1.639315
v -1.439283 1.863839 0.830971
v -0.556280 1.863839 1.398961
v -1.489675 1.863839 -0.217728
v -0.606672 1.863839 0.350262
v -1.022978 2.145217 0.590616
vt 0.290121 0.372070
vt 0.290121 -0.000000
vt 0.671155 -0.000000
vt 0.671155 0.372070
vt 0.290121 -0.000000
vt 0.290121 0.372070
vt 0.671155 0.372070
vt 0.671155 -0.000000
vt 0.671155 0.550137
vt 0.718784 0.577773
vt 0.718784 0.577773
vt 0.671155 0.550137
vt 0.671155 0.550137
vt 0.671155 0.550137
vt 0.242492 0.577773
vt 0.290121 0.550137
vt 0.290121 0.550137
vt 0.242492 0.577773
vt 0.401256 0.710440
vt 0.560020 0.710440
vt 0.560020 0.710440
vt 0.290121 0.550137
vt 0.290121 0.550137
vt 0.401256 0.710440
vt 0.401256 0.854432
vt 0.401256 0.854432
vt 0.560020 0.854432
vt 0.560020 0.854432
vt 0.480638 1.000000
vt 0.579866 0.872761
vt 0.480638 0.872761
vt 0.381411 0.872761
vt 0.381411 0.872761
vt 0.381411 0.872761
vt 0.579866 0.872761
vt 0.480638 0.872761
vt 0.579866 0.872761
vt 0.671155 -0.000000
vt 0.671155 0.000000
vt 0.939662 0.000000
vt 0.939662 -0.000000
vt 0.939662 0.434040
vt 0.939662 0.434040
vt 0.973226 0.446326
vt 0.973226 0.446326
vt 0.973226 0.446326
vt 0.671155 0.434040
vt 0.671155 -0.000000
vt 0.811605 0.446326
vt 0.649984 0.446326
vt 0.671155 -0.000000
vt 0.671155 0.434040
vt 0.649984 0.446326
vt 0.649984 0.446326
vt 0.811605 0.544365
vt 0.811605 0.446326
vt 0.290121 -0.000000
vt 0.290121 -0.000000
vt 0.290121 0.550137
vt 0.671155 -0.000000
vt 0.671155 0.550137
vt 0.290121 -0.000000
vt 0.290121 0.550137
vt 0.290121 -0.000000
vt 0.671155 0.550137
vt 0.671155 -0.000000
vt 0.290121 0.438728
vt 0.290121 0.000000
vt 0.028652 0.000000
vt 0.290121 -0.000000
vt 0.028652 -0.000000
vt 0.290121 0.438728
vt 0.290121 0.438728
vt 0.028652 0.438728
vt 0.028652 0.438728
vt 0.028652 0.438728
vt 0.159387 0.560918
vt 0.159387 0.438728
vt 0.159387 0.438728
vn 0.500000 0.000000 0.866026
vn 0.500000 0.000000 0.866026
vn 0.500000 0.000000 0.866026
vn 0.500000 0.000000 0.866026
vn -0.500000 0.000000 -0.866025
vn -0.500000 0.000000 -0.866025
vn -0.500000 0.000000 -0.866025
vn -0.500000 0.000000 -0.866025
vn 0.113672 -0.975599 -0.187843
vn 0.043690 -0.980303 -0.192608
vn 0.188649 -0.980303 0.058468
vn 0.219513 -0.975599 -0.004521
vn 0.295781 -0.939868 -0.170769
vn 0.295781 -0.939868 -0.170769
vn -0.043690 -0.980303 0.192608
vn -0.113672 -0.975599 0.187843
vn -0.219512 -0.975599 0.004521
vn -0.188648 -0.980303 -0.058468
vn -0.161619 0.946318 -0.279933
vn -0.161619 0.946318 -0.279933
vn -0.161619 0.946318 -0.279933
vn -0.161619 0.946318 -0.279933
vn 0.401552 0.886007 -0.231836
vn 0.401552 0.886007 -0.231836
vn 0.401552 0.886007 -0.231836
vn 0.401552 0.886007 -0.231836
vn -0.295781 -0.939868 0.170769
vn -0.295781 -0.939868 0.170769
vn 0.161619 0.946318 0.279933
vn 0.161619 0.946318 0.279933
vn 0.161619 0.946318 0.279933
vn 0.161619 0.946318 0.279933
vn -0.401552 0.886007 0.231836
vn -0.401552 0.886007 0.231836
vn -0.401552 0.886007 0.231836
vn -0.401552 0.886007 0.231836
vn -0.866025 0.000000 0.500000
vn -0.866025 0.000000 0.500000
vn -0.866025 0.000000 0.500000
vn -0.866025 0.000000 0.500000
vn -0.500000 0.000000 -0.866025
vn -0.500000 0.000000 -0.866025
vn -0.500000 0.000000 -0.866025
vn -0.500000 0.000000 -0.866025
vn 0.500000 0.000000 0.866025
vn 0.500000 0.000000 0.866025
vn 0.500000 0.000000 0.866025
vn 0.500000 0.000000 0.866025
vn 0.866025 0.000000 -0.500000
vn 0.866025 0.000000 -0.500000
vn 0.866025 0.000000 -0.500000
vn 0.866025 0.000000 -0.500000
vn -0.232126 0.885704 -0.402053
vn -0.232126 0.885704 -0.402053
vn -0.232126 0.885704 -0.402053
vn -0.176590 -0.935556 -0.305863
vn -0.176590 -0.935556 -0.305863
vn -0.176590 -0.935556 -0.305863
vn -0.176590 -0.935556 -0.305863
vn -0.176590 -0.935556 -0.305863
vn -0.433592 -0.865639 0.250334
vn -0.433592 -0.865639 0.250335
vn -0.433592 -0.865639 0.250334
vn -0.433592 -0.865639 0.250335
vn -0.433592 -0.865639 0.250334
vn 0.176590 -0.935556 0.305863
vn 0.176590 -0.935556 0.305863
vn 0.176590 -0.935556 0.305863
vn 0.176590 -0.935556 0.305863
vn 0.176590 -0.935556 0.305863
vn 0.433592 -0.865639 -0.250335
vn 0.433592 -0.865639 -0.250335
vn 0.433592 -0.865639 -0.250335
vn 0.433592 -0.865639 -0.250335
vn 0.433592 -0.865639 -0.250335
vn 0.232126 0.885703 0.402054
vn 0.232126 0.885704 0.402053
vn 0.232126 0.885703 0.402054
vn -0.542264 0.779701 0.313076
vn -0.542264 0.779701 0.313076
vn -0.542264 0.779701 0.313076
vn 0.232126 0.885703 0.402054
vn -0.542264 0.779701 0.313076
vn 0.542264 0.779701 -0.313076
vn 0.542264 0.779701 -0.313076
vn 0.542264 0.779701 -0.313076
vn 0.542264 0.779701 -0.313076
vn -0.232126 0.885703 -0.402054
vn -0.000000 -1.000000 -0.000000
vn -0.000000 -1.000000 -0.000000
vn -0.000000 -1.000000 -0.000000
vn -0.000000 -1.000000 -0.000000
vn 0.866025 -0.000000 -0.500000
vn 0.866025 -0.000000 -0.500000
vn 0.866025 -0.000000 -0.500000
vn 0.866025 -0.000000 -0.500000
vn 0.079523 -0.989594 -0.119917
vn 0.027581 -0.992011 -0.123099
vn 0.193521 -0.974713 -0.111729
vn 0.111231 -0.993150 0.035791
vn 0.136694 -0.990571 -0.009134
vn 0.866025 -0.000000 -0.500000
vn 0.866025 0.000000 -0.500000
vn 0.866025 -0.000000 -0.500000
vn 0.866025 -0.000000 -0.500000
vn 0.866025 -0.000000 -0.500000
vn 0.500000 0.000000 0.866025
vn 0.500000 0.000000 0.866025
vn 0.500000 0.000000 0.866025
vn 0.500000 0.000000 0.866025
vn 0.066858 -0.991385 0.112634
vn 0.011001 -0.992381 0.122714
vn -0.110417 -0.983510 0.143237
vn 0.866025 -0.000000 -0.500000
vn 0.866025 -0.000000 -0.500000
vn 0.866025 -0.000000 -0.500000
vn 0.866025 -0.000000 -0.500000
vn 0.866025 -0.000000 -0.500000
vn -0.500000 -0.000000 -0.866025
vn -0.500000 -0.000000 -0.866025
vn -0.500000 -0.000000 -0.866025
vn -0.500000 -0.000000 -0.866025
vn -0.295824 -0.939850 0.170794
vn -0.124864 -0.990043 -0.064984
vn -0.188629 -0.981834 0.020528
vn -0.307553 0.934816 0.177566
vn -0.307553 0.934816 0.177566
vn -0.307553 0.934816 0.177566
vn -0.076245 -0.988781 -0.128448
vn 0.307553 0.934816 -0.177566
vn 0.307553 0.934816 -0.177566
vn 0.307553 0.934816 -0.177566
vn -0.307553 0.934816 0.177566
vn 0.307553 0.934816 -0.177566
vn 0.113935 0.975610 0.187625
vn 0.113935 0.975610 0.187625
vn 0.113935 0.975610 0.187625
vn -0.113935 0.975610 -0.187625
vn -0.113935 0.975610 -0.187625
vn -0.113935 0.975610 -0.187625
vn -0.113935 0.975610 -0.187625
vn 0.113935 0.975610 0.187625
vn 0.000000 0.000000 0.000000
vn 0.000000 0.000000 0.000000
vn 0.000000 0.000000 0.000000
vn 0.000000 0.000000 0.000000
vn 0.000000 0.000000 0.000000
vn 0.000000 0.000000 0.000000
vn 0.000000 0.000000 0.000000
vn 0.000000 0.000000 0.000000
vn 0.000000 0.000000 0.000000
vn 0.000000 0.000000 0.000000
vn 0.000000 0.000000 0.000000
vn 0.000000 0.000000 0.000000
vn 0.000000 0.000000 0.000000
vn 0.000000 0.000000 0.000000
vn 0.000000 0.000000 0.000000
vn 0.000000 0.000000 0.000000
vn 0.000000 0.000000 0.000000
vn 0.000000 0.000000 0.000000
vn 0.000000 0.000000 0.000000
vn 0.000000 0.000000 0.000000
vn 0.000000 0.000000 0.000000
vn 0.000000 0.000000 0.000000
vn 0.000000 0.000000 0.000000
vn 0.000000 0.000000 0.000000
vn 0.000000 0.000000 0.000000
vn 0.000000 0.000000 0.000000
vn 0.000000 0.000000 0.000000
vn 0.000000 0.000000 0.000000
vn 0.000000 0.000000 0.000000
vn 0.000000 0.000000 0.000000
vn 0.000000 0.000000 0.000000
vn 0.000000 0.000000 0.000000
vn -0.866026 0.000000 0.500000
vn -0.866026 0.000000 0.500000
vn -0.866026 0.000000 0.500000
vn -0.866026 0.000000 0.500000
vn -0.000000 -1.000000 -0.000000
vn -0.000000 -1.000000 -0.000000
vn -0.000000 -1.000000 -0.000000
vn -0.000000 -1.000000 -0.000000
vn 0.866026 0.000000 -0.499999
vn 0.866026 0.000000 -0.499999
vn 0.866026 0.000000 -0.499999
vn 0.866026 0.000000 -0.499999
vn 0.289386 0.815489 0.501232
vn 0.289386 0.815489 0.501232
vn 0.289386 0.815489 0.501232
vn 0.289386 0.815489 0.501232
vn -0.866026 0.000000 0.500000
vn -0.866026 0.000000 0.500000
vn -0.866026 0.000000 0.500000
vn -0.866026 0.000000 0.500000
vn -0.289386 0.815489 -0.501232
vn -0.289386 0.815489 -0.501232
vn -0.289386 0.815489 -0.501232
vn -0.289386 0.815489 -0.501232
vn 0.866025 0.000000 -0.500000
vn 0.866025 0.000000 -0.500000
vn 0.866025 0.000000 -0.500000
vn 0.866025 0.000000 -0.500000
vn 0.000000 -1.000000 0.000000
vn 0.000000 -1.000000 0.000000
vn 0.000000 -1.000000 0.000000
vn 0.000000 -1.000000 0.000000
vn -0.866025 0.000000 0.500001
vn -0.866025 0.000000 0.500000
vn -0.866025 -0.000000 0.500001
vn -0.866025 -0.000000 0.500001
vn -0.866025 -0.000000 0.500001
vn -0.000000 -1.000000 -0.000000
vn -0.000000 -1.000000 -0.000000
vn -0.000000 -1.000000 -0.000000
vn -0.000000 -1.000000 -0.000000
vn -0.866026 0.000000 0.500000
vn -0.866026 0.000000 0.500000
vn -0.866025 0.000000 0.500000
vn -0.866026 0.000000 0.500000
vn -0.866026 0.000000 0.500000
vn -0.866025 0.000000 0.500000
vn -0.866025 0.000000 0.500000
vn -0.866025 0.000000 0.500000
vn -0.866025 0.000000 0.500000
vn -0.866025 0.000000 0.500000
vn -0.866025 0.000000 0.500000
vn 0.144314 0.957442 0.249959
vn 0.144314 0.957442 0.249959
vn 0.144314 0.957442 0.249959
vn -0.500000 -0.000000 -0.866025
vn -0.500000 -0.000000 -0.866025
vn -0.500000 -0.000000 -0.866025
vn -0.500000 -0.000000 -0.866025
vn -0.500000 -0.000000 -0.866025
vn 0.500000 0.000000 0.866025
vn 0.500000 0.000000 0.866025
vn 0.500000 0.000000 0.866025
vn 0.500000 0.000000 0.866025
vn 0.500000 0.000000 0.866025
vn -0.144314 0.957442 -0.249959
vn -0.144314 0.957442 -0.249959
vn -0.144314 0.957442 -0.249959
vn -0.144314 0.957442 -0.249959
vn 0.144314 0.957442 0.249959
vn 0.437484 0.863024 -0.252582
vn 0.437484 0.863024 -0.252582
vn 0.437484 0.863024 -0.252582
vn -0.437485 0.863024 0.252582
vn -0.437484 0.863024 0.252582
vn -0.437484 0.863024 0.252582
vn -0.000000 -1.000000 -0.000000
vn -0.000000 -1.000000 -0.000000
vn -0.000000 -1.000000 -0.000000
vn -0.000000 -1.000000 -0.000000
vn 0.437484 0.863024 -0.252582
vn -0.437484 0.863024 0.252582
s off
g pCube1
usemtl lambert6SG
f 58/1/1 57/2/2 59/3/3 60/4/4
f 62/5/5 61/6/6 63/7/7 64/8/8
s 1
f 6/9/9 11/10/10 10/11/11 4/12/12 30/13/13 31/14/14
f 4/12/12 10/11/11 9/15/15 3/16/16
f 5/17/17 12/18/18 11/10/10 6/9/9
s off
f 16/19/19 14/20/20 11/10/21 12/18/22
f 14/20/23 13/21/24 10/11/25 11/10/26
s 1
f 3/16/16 9/15/15 12/18/18 5/17/17 68/22/27 67/23/28
s off
f 13/21/29 15/24/30 9/15/31 10/11/32
f 15/24/33 16/19/34 12/18/35 9/15/36
f 16/19/37 15/24/38 19/25/39 18/26/40
f 17/27/41 14/20/42 16/19/43 18/26/44
f 19/25/45 15/24/46 13/21/47 20/28/48
f 20/28/49 13/21/50 14/20/51 17/27/52
s 2
f 29/29/53 21/30/54 28/31/55
s off
f 18/26/56 22/32/57 28/31/58 21/30/59 17/27/60
f 19/25/61 23/33/62 27/34/63 22/32/64 18/26/65
f 20/28/66 24/35/67 26/36/68 23/33/69 19/25/70
f 17/27/71 21/30/72 25/37/73 24/35/74 20/28/75
s 3
f 29/29/76 23/33/77 26/36/78
s 4
f 29/29/79 22/32/80 27/34/81
s 3
f 24/35/82 29/29/76 26/36/78
s 4
f 23/33/83 29/29/79 27/34/81
s 5
f 21/30/84 29/29/85 25/37/86
f 29/29/85 24/35/87 25/37/86
s 2
f 22/32/88 29/29/53 28/31/55
s 6
f 33/38/89 32/39/90 39/40/91 38/41/92
s off
f 38/41/93 39/40/94 37/42/95 36/43/96
s 7
f 37/42/97 43/44/98 45/45/99 42/46/100 36/43/101
s 8
f 34/47/102 30/13/103 4/12/104 2/48/105 33/38/106
s off
f 38/41/107 36/43/108 34/47/109 33/38/110
s 7
f 36/43/101 42/46/100 46/49/111 40/50/112 34/47/113
s 8
f 8/51/114 6/9/115 31/14/116 35/52/117 32/39/118
s off
f 37/42/119 39/40/120 32/39/121 35/52/122
s 8
f 34/47/102 35/52/117 31/14/116 30/13/103
s 7
f 34/47/113 40/50/112 47/53/123 41/54/124 35/52/125
s 9
f 48/55/126 41/54/127 47/53/128
s 7
f 44/56/129 43/44/98 37/42/97 35/52/125 41/54/124
s 10
f 48/55/130 42/46/131 45/45/132
s 9
f 40/50/133 48/55/126 47/53/128
s 10
f 43/44/134 48/55/130 45/45/132
s 11
f 42/46/135 48/55/136 46/49/137
s 12
f 48/55/138 43/44/139 44/56/140
f 41/54/141 48/55/138 44/56/140
s 11
f 48/55/136 40/50/142 46/49/137
s off
f 3/16/143 1/57/144 49/58/145 50/59/146
f 1/57/147 2/48/148 51/60/149 49/58/150
f 2/48/151 4/12/152 52/61/153 51/60/154
f 4/12/155 3/16/156 50/59/157 52/61/158
f 7/62/159 5/17/160 53/63/161 54/64/162
f 5/17/163 6/9/164 55/65/165 53/63/166
f 6/9/167 8/51/168 56/66/169 55/65/170
f 8/51/171 7/62/172 54/64/173 56/66/174
f 50/59/175 49/58/176 57/2/177 58/1/178
f 49/58/179 51/60/180 59/3/181 57/2/182
f 51/60/183 52/61/184 60/4/185 59/3/186
f 52/61/187 50/59/188 58/1/189 60/4/190
f 54/64/191 53/63/192 61/6/193 62/5/194
f 53/63/195 55/65/196 63/7/197 61/6/198
f 55/65/199 56/66/200 64/8/201 63/7/202
f 56/66/203 54/64/204 62/5/205 64/8/206
s 13
f 69/67/207 68/22/208 5/17/209 7/62/210 65/68/211
s 6
f 73/69/212 65/68/213 66/70/214 74/71/215
s 13
f 1/57/216 3/16/217 67/23/218 70/72/219 66/70/220
f 70/72/219 67/23/218 68/22/208 69/67/207 78/73/221
s off
f 73/69/222 74/71/223 72/74/224 75/75/225 71/76/226
s 14
f 70/72/227 79/77/228 76/78/229
s off
f 77/79/230 69/67/231 65/68/232 73/69/233 71/76/234
f 72/74/235 74/71/236 66/70/237 70/72/238 76/78/239
s 15
f 71/76/240 79/77/241 77/79/242
f 79/77/241 69/67/243 77/79/242
s 14
f 79/77/228 72/74/244 76/78/229
s 16
f 69/67/245 79/77/246 78/73/247
s 17
f 72/74/248 79/77/249 75/75/250
s 6
f 33/38/89 2/48/251 1/57/252 66/70/214 65/68/213 7/62/253 8/51/254 32/39/90
s 16
f 79/77/246 70/72/255 78/73/247
s 17
f 79/77/249 71/76/256 75/75/250
