# This file uses centimeters as units for non-parametric coordinates.

mtllib palace6.mtl
g default
v -0.542460 0.853545 1.539782
v 0.670885 0.853545 0.839257
v -0.542460 2.120389 1.539782
v 0.670885 2.120389 0.839257
v -1.615735 2.120389 -0.319186
v -0.402391 2.120389 -1.019710
v -1.615735 0.853545 -0.319186
v -0.402391 0.853545 -1.019710
v -0.559968 2.184030 1.859718
v 0.956712 2.184030 0.984062
v -0.384882 2.184030 -1.339647
v -1.901563 2.184030 -0.463991
v 0.003954 2.489533 0.501378
v -0.443244 2.489533 -0.273192
v -0.501606 2.489533 0.793263
v -0.948804 2.489533 0.018693
v -0.443244 2.821115 -0.273192
v -0.948804 2.821115 0.018693
v -0.501606 2.821115 0.793263
v 0.003954 2.821115 0.501378
v -0.435949 2.863321 -0.406499
v -1.067899 2.863321 -0.041642
v -0.508901 2.863321 0.926570
v 0.123049 2.863321 0.561713
v -0.156450 2.863321 0.077607
v -0.192927 2.863321 0.744142
v -0.788400 2.863321 0.442464
v -0.751924 2.863321 -0.224071
v -0.472425 3.156325 0.260035
v 0.535705 2.120389 0.605119
v -0.267211 2.120389 -0.785573
v -0.267211 0.853545 -0.785572
v 0.535706 0.853545 0.605120
v 0.535705 1.853043 0.605120
v -0.267211 1.853043 -0.785573
v 1.390727 1.853043 0.111473
v 0.587811 1.853043 -1.279220
v 1.390727 0.853545 0.111473
v 0.587811 0.853545 -1.279220
v 0.581808 1.881336 0.840662
v -0.421837 1.881336 -0.897703
v 1.597969 1.881336 0.223603
v 0.594324 1.881336 -1.514762
v 0.086243 1.881336 -1.206233
v 1.096146 1.881336 -0.645579
v 1.089889 1.881336 0.532133
v 0.079986 1.881336 -0.028521
v 0.588066 2.107098 -0.337050
vt 0.211153 -0.000000
vt 0.611506 -0.000000
vt 0.611506 0.000000
vt 0.611506 -0.000000
vt 0.611506 -0.000000
vt 0.211153 -0.000000
vt 0.211153 0.550137
vt 0.211153 0.550137
vt 0.611506 0.550137
vt 0.611506 0.550137
vt 0.661550 0.577773
vt 0.661550 0.577773
vt 0.611506 0.550137
vt 0.611506 0.550137
vt 0.161108 0.577773
vt 0.161108 0.577773
vt 0.327922 0.710440
vt 0.494736 0.710440
vt 0.494736 0.710440
vt 0.327922 0.710440
vt 0.327922 0.854432
vt 0.327922 0.854432
vt 0.494736 0.854432
vt 0.494736 0.854432
vt 0.411329 1.000000
vt 0.515588 0.872761
vt 0.411329 0.872761
vt 0.307071 0.872761
vt 0.307071 0.872761
vt 0.307071 0.872761
vt 0.515588 0.872761
vt 0.411329 0.872761
vt 0.515588 0.872761
vt 0.893628 0.000000
vt 0.893628 -0.000000
vt 0.893628 0.434040
vt 0.893628 0.434040
vt 0.928893 0.446326
vt 0.928893 0.446326
vt 0.928893 0.446326
vt 0.611506 0.434040
vt 0.759077 0.446326
vt 0.589262 0.446326
vt 0.611506 0.434040
vt 0.589262 0.446326
vt 0.589262 0.446326
vt 0.759077 0.544365
vt 0.759077 0.446326
vn 0.000000 -1.000000 -0.000000
vn 0.000000 -1.000000 -0.000000
vn 0.000000 -1.000000 -0.000000
vn 0.000000 -1.000000 -0.000000
vn 0.000000 -1.000000 -0.000000
vn 0.000000 -1.000000 -0.000000
vn -0.866025 0.000000 0.500000
vn -0.866025 0.000000 0.500000
vn -0.866025 0.000000 0.500000
vn -0.866025 0.000000 0.500000
vn 0.500000 0.000000 0.866026
vn 0.500000 0.000000 0.866026
vn 0.500000 0.000000 0.866026
vn 0.500000 0.000000 0.866026
vn -0.500000 0.000000 -0.866025
vn -0.500000 0.000000 -0.866025
vn -0.500000 0.000000 -0.866025
vn -0.500000 0.000000 -0.866025
vn 0.113672 -0.975599 -0.187843
vn 0.043690 -0.980303 -0.192608
vn 0.188649 -0.980303 0.058468
vn 0.219513 -0.975599 -0.004521
vn 0.295781 -0.939868 -0.170769
vn 0.295781 -0.939868 -0.170769
vn -0.043690 -0.980303 0.192608
vn -0.113672 -0.975599 0.187843
vn -0.219512 -0.975599 0.004521
vn -0.188648 -0.980303 -0.058468
vn -0.161619 0.946318 -0.279933
vn -0.161619 0.946318 -0.279933
vn -0.161619 0.946318 -0.279933
vn -0.161619 0.946318 -0.279933
vn 0.401552 0.886007 -0.231836
vn 0.401552 0.886007 -0.231836
vn 0.401552 0.886007 -0.231836
vn 0.401552 0.886007 -0.231836
vn 0.161619 0.946318 0.279933
vn 0.161619 0.946318 0.279933
vn 0.161619 0.946318 0.279933
vn 0.161619 0.946318 0.279933
vn -0.401552 0.886007 0.231836
vn -0.401552 0.886007 0.231836
vn -0.401552 0.886007 0.231836
vn -0.401552 0.886007 0.231836
vn -0.866025 0.000000 0.500000
vn -0.866025 0.000000 0.500000
vn -0.866025 0.000000 0.500000
vn -0.866025 0.000000 0.500000
vn -0.500000 0.000000 -0.866025
vn -0.500000 0.000000 -0.866025
vn -0.500000 0.000000 -0.866025
vn -0.500000 0.000000 -0.866025
vn 0.500000 0.000000 0.866025
vn 0.500000 0.000000 0.866025
vn 0.500000 0.000000 0.866025
vn 0.500000 0.000000 0.866025
vn 0.866025 0.000000 -0.500000
vn 0.866025 0.000000 -0.500000
vn 0.866025 0.000000 -0.500000
vn 0.866025 0.000000 -0.500000
vn -0.232126 0.885704 -0.402053
vn -0.232126 0.885703 -0.402053
vn -0.232126 0.885704 -0.402053
vn -0.176590 -0.935555 -0.305863
vn -0.176590 -0.935555 -0.305863
vn -0.176590 -0.935555 -0.305863
vn -0.176590 -0.935555 -0.305863
vn -0.176590 -0.935555 -0.305863
vn -0.433592 -0.865639 0.250335
vn -0.433592 -0.865639 0.250335
vn -0.433592 -0.865639 0.250335
vn -0.433592 -0.865639 0.250335
vn -0.433592 -0.865639 0.250335
vn 0.176590 -0.935556 0.305863
vn 0.176590 -0.935556 0.305863
vn 0.176590 -0.935556 0.305863
vn 0.176590 -0.935556 0.305863
vn 0.176590 -0.935556 0.305863
vn 0.433592 -0.865639 -0.250335
vn 0.433592 -0.865639 -0.250335
vn 0.433592 -0.865639 -0.250335
vn 0.433592 -0.865639 -0.250335
vn 0.433592 -0.865639 -0.250335
vn 0.232126 0.885703 0.402054
vn 0.232126 0.885703 0.402054
vn 0.232126 0.885703 0.402054
vn -0.542264 0.779700 0.313076
vn -0.542264 0.779701 0.313076
vn -0.542264 0.779701 0.313076
vn 0.232126 0.885703 0.402054
vn -0.542264 0.779701 0.313076
vn 0.542264 0.779701 -0.313076
vn 0.542264 0.779701 -0.313076
vn 0.542264 0.779701 -0.313076
vn 0.542264 0.779701 -0.313076
vn -0.232125 0.885704 -0.402053
vn -0.000000 -1.000000 -0.000000
vn -0.000000 -1.000000 -0.000000
vn 0.866025 -0.000000 -0.500000
vn 0.866025 -0.000000 -0.500000
vn 0.866025 -0.000000 -0.500000
vn 0.866025 -0.000000 -0.500000
vn 0.079523 -0.989594 -0.119917
vn 0.027581 -0.992011 -0.123099
vn 0.193521 -0.974713 -0.111729
vn 0.111231 -0.993150 0.035791
vn 0.136694 -0.990571 -0.009133
vn 0.866025 -0.000000 -0.500000
vn 0.866025 -0.000000 -0.500000
vn 0.866025 0.000000 -0.500000
vn 0.866025 0.000000 -0.500000
vn 0.866025 0.000000 -0.500000
vn 0.500000 0.000000 0.866025
vn 0.500000 0.000000 0.866025
vn 0.500000 0.000000 0.866025
vn 0.500000 0.000000 0.866025
vn 0.066858 -0.991385 0.112634
vn 0.011001 -0.992381 0.122714
vn -0.110417 -0.983510 0.143238
vn 0.866025 -0.000000 -0.500000
vn 0.866025 -0.000000 -0.500000
vn 0.866025 -0.000000 -0.500000
vn 0.866025 -0.000000 -0.500000
vn 0.866025 -0.000000 -0.500000
vn -0.500000 -0.000000 -0.866025
vn -0.500000 -0.000000 -0.866025
vn -0.500000 -0.000000 -0.866025
vn -0.500000 -0.000000 -0.866025
vn -0.295825 -0.939849 0.170795
vn -0.124864 -0.990043 -0.064984
vn -0.188629 -0.981834 0.020528
vn -0.307553 0.934816 0.177566
vn -0.307553 0.934816 0.177566
vn -0.307553 0.934816 0.177566
vn -0.076245 -0.988781 -0.128448
vn 0.307553 0.934816 -0.177566
vn 0.307553 0.934816 -0.177566
vn 0.307553 0.934816 -0.177566
vn -0.307553 0.934816 0.177566
vn 0.307553 0.934816 -0.177566
vn 0.113935 0.975610 0.187625
vn 0.113935 0.975610 0.187625
vn 0.113935 0.975610 0.187625
vn -0.113935 0.975610 -0.187625
vn -0.113935 0.975610 -0.187625
vn -0.113935 0.975610 -0.187625
vn -0.113935 0.975610 -0.187625
vn 0.113935 0.975610 0.187625
s 1
f 7/1/1 8/2/2 32/3/3 33/4/4 2/5/5 1/6/6
s off
f 7/1/7 1/6/8 3/7/9 5/8/10
f 3/7/11 1/6/12 2/5/13 4/9/14
f 7/1/15 5/8/16 6/10/17 8/2/18
s 2
f 6/10/19 11/11/20 10/12/21 4/9/22 30/13/23 31/14/24
f 4/9/22 10/12/21 9/15/25 3/7/26
f 5/8/27 12/16/28 11/11/20 6/10/19
s off
f 16/17/29 14/18/30 11/11/31 12/16/32
f 14/18/33 13/19/34 10/12/35 11/11/36
s 2
f 3/7/26 9/15/25 12/16/28 5/8/27
s off
f 13/19/37 15/20/38 9/15/39 10/12/40
f 15/20/41 16/17/42 12/16/43 9/15/44
f 16/17/45 15/20/46 19/21/47 18/22/48
f 17/23/49 14/18/50 16/17/51 18/22/52
f 19/21/53 15/20/54 13/19/55 20/24/56
f 20/24/57 13/19/58 14/18/59 17/23/60
s 3
f 29/25/61 21/26/62 28/27/63
s off
f 18/22/64 22/28/65 28/27/66 21/26/67 17/23/68
f 19/21/69 23/29/70 27/30/71 22/28/72 18/22/73
f 20/24/74 24/31/75 26/32/76 23/29/77 19/21/78
f 17/23/79 21/26/80 25/33/81 24/31/82 20/24/83
s 4
f 29/25/84 23/29/85 26/32/86
s 5
f 29/25/87 22/28/88 27/30/89
s 4
f 24/31/90 29/25/84 26/32/86
s 5
f 23/29/91 29/25/87 27/30/89
s 6
f 21/26/92 29/25/93 25/33/94
f 29/25/93 24/31/95 25/33/94
s 3
f 22/28/96 29/25/61 28/27/63
s 1
f 33/4/4 32/3/3 39/34/97 38/35/98
s off
f 38/35/99 39/34/100 37/36/101 36/37/102
s 7
f 37/36/103 43/38/104 45/39/105 42/40/106 36/37/107
s 8
f 34/41/108 30/13/109 4/9/110 2/5/111 33/4/112
s off
f 38/35/113 36/37/114 34/41/115 33/4/116
s 7
f 36/37/107 42/40/106 46/42/117 40/43/118 34/41/119
s 8
f 8/2/120 6/10/121 31/14/122 35/44/123 32/3/124
s off
f 37/36/125 39/34/126 32/3/127 35/44/128
s 8
f 34/41/108 35/44/123 31/14/122 30/13/109
s 7
f 34/41/119 40/43/118 47/45/129 41/46/130 35/44/131
s 9
f 48/47/132 41/46/133 47/45/134
s 7
f 44/48/135 43/38/104 37/36/103 35/44/131 41/46/130
s 10
f 48/47/136 42/40/137 45/39/138
s 9
f 40/43/139 48/47/132 47/45/134
s 10
f 43/38/140 48/47/136 45/39/138
s 11
f 42/40/141 48/47/142 46/42/143
s 12
f 48/47/144 43/38/145 44/48/146
f 41/46/147 48/47/144 44/48/146
s 11
f 48/47/142 40/43/148 46/42/143
