# This file uses centimeters as units for non-parametric coordinates.

mtllib palace8.mtl
g default
v -0.070034 0.853545 1.279746
v 1.143310 0.853545 0.579222
v -0.070034 2.120389 1.279746
v 1.143310 2.120389 0.579222
v -1.143310 2.120389 -0.579221
v 0.070035 2.120389 -1.279746
v -1.143310 0.853545 -0.579221
v 0.070035 0.853545 -1.279746
v -0.087543 2.184030 1.599682
v 1.429137 2.184030 0.724027
v 0.087543 2.184030 -1.599683
v -1.429138 2.184030 -0.724027
v 0.476379 2.489533 0.241342
v 0.029181 2.489533 -0.533228
v -0.029181 2.489533 0.533227
v -0.476379 2.489533 -0.241342
v 0.029181 2.821115 -0.533228
v -0.476379 2.821115 -0.241342
v -0.029181 2.821115 0.533227
v 0.476379 2.821115 0.241342
v 0.036476 2.863321 -0.666535
v -0.595474 2.863321 -0.301678
v -0.036476 2.863321 0.666534
v 0.595474 2.863321 0.301678
v 0.315975 2.863321 -0.182428
v 0.279499 2.863321 0.484106
v -0.315975 2.863321 0.182428
v -0.279499 2.863321 -0.484106
v -0.000000 3.156325 -0.000000
v 1.008131 2.120389 0.345084
v 0.205214 2.120389 -1.045608
v 0.205214 0.853545 -1.045608
v 1.008131 0.853545 0.345084
v 1.008131 1.853043 0.345084
v 0.205214 1.853043 -1.045608
v 1.863152 1.853043 -0.148563
v 1.060236 1.853043 -1.539255
v 1.863152 0.853545 -0.148563
v 1.060236 0.853545 -1.539255
v 1.054234 1.881336 0.580627
v 0.050588 1.881336 -1.157739
v 2.070394 1.881336 -0.036432
v 1.066749 1.881336 -1.774798
v 0.558668 1.881336 -1.466268
v 1.568572 1.881336 -0.905615
v 1.562314 1.881336 0.272097
v 0.552411 1.881336 -0.288556
v 1.060491 2.107098 -0.597086
v -0.070034 0.853545 1.279746
v -0.070034 2.120389 1.279746
v 1.143310 0.853545 0.579222
v 1.143310 2.120389 0.579222
v -1.143310 2.120389 -0.579221
v -1.143310 0.853545 -0.579221
v 0.070035 2.120389 -1.279746
v 0.070035 0.853545 -1.279746
v 0.218843 0.853545 1.780097
v 0.218843 1.710342 1.780097
v 1.432187 0.853545 1.079572
v 1.432187 1.710342 1.079572
v -1.432187 1.710342 -1.079572
v -1.432187 0.853545 -1.079572
v -0.218843 1.710342 -1.780097
v -0.218843 0.853545 -1.780097
vt 0.198768 -0.000000
vt 0.630799 -0.000000
vt 0.630799 0.000000
vt 0.630799 -0.000000
vt 0.630799 -0.000000
vt 0.198768 -0.000000
vt 0.198768 0.550137
vt 0.198768 0.550137
vt 0.198768 0.372070
vt 0.198768 -0.000000
vt 0.630799 -0.000000
vt 0.630799 0.372070
vt 0.198768 -0.000000
vt 0.198768 0.372070
vt 0.630799 0.372070
vt 0.630799 -0.000000
vt 0.630799 0.550137
vt 0.684803 0.577773
vt 0.684803 0.577773
vt 0.630799 0.550137
vt 0.630799 0.550137
vt 0.630799 0.550137
vt 0.144765 0.577773
vt 0.144765 0.577773
vt 0.324777 0.710440
vt 0.504790 0.710440
vt 0.504790 0.710440
vt 0.324777 0.710440
vt 0.324777 0.854432
vt 0.324777 0.854432
vt 0.504790 0.854432
vt 0.504790 0.854432
vt 0.414784 1.000000
vt 0.527292 0.872761
vt 0.414784 0.872761
vt 0.302276 0.872761
vt 0.302276 0.872761
vt 0.302276 0.872761
vt 0.527292 0.872761
vt 0.414784 0.872761
vt 0.527292 0.872761
vt 0.935243 0.000000
vt 0.935243 -0.000000
vt 0.935243 0.434040
vt 0.935243 0.434040
vt 0.973298 0.446326
vt 0.973298 0.446326
vt 0.973298 0.446326
vt 0.630799 0.434040
vt 0.790046 0.446326
vt 0.606794 0.446326
vt 0.630799 0.434040
vt 0.606794 0.446326
vt 0.606794 0.446326
vt 0.790046 0.544365
vt 0.790046 0.446326
vt 0.198768 -0.000000
vt 0.198768 0.550137
vt 0.630799 -0.000000
vt 0.630799 0.550137
vt 0.198768 0.550137
vt 0.198768 -0.000000
vt 0.630799 0.550137
vt 0.630799 -0.000000
vn 0.000000 -1.000000 -0.000000
vn 0.000000 -1.000000 -0.000000
vn 0.000000 -1.000000 -0.000000
vn 0.000000 -1.000000 -0.000000
vn 0.000000 -1.000000 -0.000000
vn 0.000000 -1.000000 -0.000000
vn -0.866025 0.000000 0.500000
vn -0.866025 0.000000 0.500000
vn -0.866025 0.000000 0.500000
vn -0.866025 0.000000 0.500000
vn 0.500000 0.000000 0.866025
vn 0.500000 0.000000 0.866025
vn 0.500000 0.000000 0.866025
vn 0.500000 0.000000 0.866025
vn -0.500000 0.000000 -0.866025
vn -0.500000 0.000000 -0.866025
vn -0.500000 0.000000 -0.866025
vn -0.500000 0.000000 -0.866025
vn 0.113672 -0.975599 -0.187843
vn 0.043690 -0.980303 -0.192608
vn 0.188649 -0.980303 0.058468
vn 0.219513 -0.975599 -0.004521
vn 0.295781 -0.939868 -0.170769
vn 0.295781 -0.939868 -0.170769
vn -0.043690 -0.980303 0.192608
vn -0.113672 -0.975599 0.187843
vn -0.219512 -0.975599 0.004521
vn -0.188648 -0.980303 -0.058468
vn -0.161619 0.946318 -0.279933
vn -0.161619 0.946318 -0.279933
vn -0.161619 0.946318 -0.279933
vn -0.161619 0.946318 -0.279933
vn 0.401552 0.886007 -0.231836
vn 0.401552 0.886007 -0.231836
vn 0.401552 0.886007 -0.231836
vn 0.401552 0.886007 -0.231836
vn 0.161619 0.946318 0.279933
vn 0.161619 0.946318 0.279933
vn 0.161619 0.946318 0.279933
vn 0.161619 0.946318 0.279933
vn -0.401552 0.886007 0.231836
vn -0.401552 0.886007 0.231836
vn -0.401552 0.886007 0.231836
vn -0.401552 0.886007 0.231836
vn -0.866025 0.000000 0.500000
vn -0.866025 0.000000 0.500000
vn -0.866025 0.000000 0.500000
vn -0.866025 0.000000 0.500000
vn -0.500000 0.000000 -0.866025
vn -0.500000 0.000000 -0.866025
vn -0.500000 0.000000 -0.866025
vn -0.500000 0.000000 -0.866025
vn 0.500000 0.000000 0.866025
vn 0.500000 0.000000 0.866025
vn 0.500000 0.000000 0.866025
vn 0.500000 0.000000 0.866025
vn 0.866025 0.000000 -0.500000
vn 0.866025 0.000000 -0.500000
vn 0.866025 0.000000 -0.500000
vn 0.866025 0.000000 -0.500000
vn -0.232126 0.885704 -0.402053
vn -0.232126 0.885704 -0.402053
vn -0.232126 0.885704 -0.402053
vn -0.176590 -0.935556 -0.305863
vn -0.176590 -0.935556 -0.305863
vn -0.176590 -0.935556 -0.305863
vn -0.176590 -0.935556 -0.305863
vn -0.176590 -0.935556 -0.305863
vn -0.433592 -0.865639 0.250334
vn -0.433592 -0.865639 0.250335
vn -0.433592 -0.865639 0.250334
vn -0.433592 -0.865639 0.250335
vn -0.433592 -0.865639 0.250334
vn 0.176590 -0.935556 0.305863
vn 0.176590 -0.935556 0.305863
vn 0.176590 -0.935556 0.305863
vn 0.176590 -0.935556 0.305863
vn 0.176590 -0.935556 0.305863
vn 0.433592 -0.865639 -0.250335
vn 0.433592 -0.865639 -0.250335
vn 0.433592 -0.865639 -0.250335
vn 0.433592 -0.865639 -0.250335
vn 0.433592 -0.865639 -0.250335
vn 0.232126 0.885703 0.402054
vn 0.232126 0.885704 0.402053
vn 0.232126 0.885703 0.402054
vn -0.542264 0.779701 0.313076
vn -0.542264 0.779701 0.313076
vn -0.542264 0.779701 0.313076
vn 0.232126 0.885703 0.402054
vn -0.542264 0.779701 0.313076
vn 0.542264 0.779701 -0.313076
vn 0.542264 0.779701 -0.313076
vn 0.542264 0.779701 -0.313076
vn 0.542264 0.779701 -0.313076
vn -0.232126 0.885703 -0.402054
vn -0.000000 -1.000000 -0.000000
vn -0.000000 -1.000000 -0.000000
vn 0.866025 -0.000000 -0.500000
vn 0.866025 -0.000000 -0.500000
vn 0.866025 -0.000000 -0.500000
vn 0.866025 -0.000000 -0.500000
vn 0.079523 -0.989594 -0.119917
vn 0.027581 -0.992011 -0.123099
vn 0.193521 -0.974713 -0.111729
vn 0.111231 -0.993150 0.035791
vn 0.136694 -0.990571 -0.009134
vn 0.866025 -0.000000 -0.500000
vn 0.866025 0.000000 -0.500000
vn 0.866025 -0.000000 -0.500000
vn 0.866025 -0.000000 -0.500000
vn 0.866025 -0.000000 -0.500000
vn 0.500000 0.000000 0.866025
vn 0.500000 0.000000 0.866025
vn 0.500000 0.000000 0.866025
vn 0.500000 0.000000 0.866025
vn 0.066858 -0.991385 0.112634
vn 0.011001 -0.992381 0.122714
vn -0.110417 -0.983510 0.143237
vn 0.866025 -0.000000 -0.500000
vn 0.866025 -0.000000 -0.500000
vn 0.866025 -0.000000 -0.500000
vn 0.866025 -0.000000 -0.500000
vn 0.866025 -0.000000 -0.500000
vn -0.500000 -0.000000 -0.866025
vn -0.500000 -0.000000 -0.866025
vn -0.500000 -0.000000 -0.866025
vn -0.500000 -0.000000 -0.866025
vn -0.295824 -0.939850 0.170794
vn -0.124864 -0.990043 -0.064984
vn -0.188629 -0.981834 0.020528
vn -0.307553 0.934816 0.177566
vn -0.307553 0.934816 0.177566
vn -0.307553 0.934816 0.177566
vn -0.076245 -0.988781 -0.128448
vn 0.307553 0.934816 -0.177566
vn 0.307553 0.934816 -0.177566
vn 0.307553 0.934816 -0.177566
vn -0.307553 0.934816 0.177566
vn 0.307553 0.934816 -0.177566
vn 0.113935 0.975610 0.187625
vn 0.113935 0.975610 0.187625
vn 0.113935 0.975610 0.187625
vn -0.113935 0.975610 -0.187625
vn -0.113935 0.975610 -0.187625
vn -0.113935 0.975610 -0.187625
vn -0.113935 0.975610 -0.187625
vn 0.113935 0.975610 0.187625
vn 0.000000 0.000000 0.000000
vn 0.000000 0.000000 0.000000
vn 0.000000 0.000000 0.000000
vn 0.000000 0.000000 0.000000
vn 0.000000 0.000000 0.000000
vn 0.000000 0.000000 0.000000
vn 0.000000 0.000000 0.000000
vn 0.000000 0.000000 0.000000
vn 0.000000 0.000000 0.000000
vn 0.000000 0.000000 0.000000
vn 0.000000 0.000000 0.000000
vn 0.000000 0.000000 0.000000
vn 0.000000 0.000000 0.000000
vn 0.000000 0.000000 0.000000
vn 0.000000 0.000000 0.000000
vn 0.000000 0.000000 0.000000
vn 0.000000 0.000000 0.000000
vn 0.000000 0.000000 0.000000
vn 0.000000 0.000000 0.000000
vn 0.000000 0.000000 0.000000
vn 0.000000 0.000000 0.000000
vn 0.000000 0.000000 0.000000
vn 0.000000 0.000000 0.000000
vn 0.000000 0.000000 0.000000
vn 0.000000 0.000000 0.000000
vn 0.000000 0.000000 0.000000
vn 0.000000 0.000000 0.000000
vn 0.000000 0.000000 0.000000
vn 0.000000 0.000000 0.000000
vn 0.000000 0.000000 0.000000
vn 0.000000 0.000000 0.000000
vn 0.000000 0.000000 0.000000
vn -0.866026 0.000000 0.500000
vn -0.866026 0.000000 0.500000
vn -0.866026 0.000000 0.500000
vn -0.866026 0.000000 0.500000
vn 0.000000 -1.000000 0.000000
vn 0.000000 -1.000000 0.000000
vn 0.000000 -1.000000 0.000000
vn 0.000000 -1.000000 0.000000
vn 0.866026 0.000000 -0.500000
vn 0.866026 0.000000 -0.500000
vn 0.866026 0.000000 -0.500000
vn 0.866026 0.000000 -0.500000
vn 0.289386 0.815489 0.501232
vn 0.289386 0.815489 0.501232
vn 0.289386 0.815489 0.501232
vn 0.289386 0.815489 0.501232
vn -0.866026 0.000000 0.500000
vn -0.866026 0.000000 0.500000
vn -0.866026 0.000000 0.500000
vn -0.866026 0.000000 0.500000
vn -0.289386 0.815489 -0.501232
vn -0.289386 0.815489 -0.501232
vn -0.289386 0.815489 -0.501232
vn -0.289386 0.815489 -0.501232
vn 0.866025 0.000000 -0.500000
vn 0.866025 0.000000 -0.500000
vn 0.866025 0.000000 -0.500000
vn 0.866025 0.000000 -0.500000
vn 0.000000 -1.000000 0.000000
vn 0.000000 -1.000000 0.000000
vn 0.000000 -1.000000 0.000000
vn 0.000000 -1.000000 0.000000
s 1
g pCube1
usemtl lambert6SG
f 7/1/1 8/2/2 32/3/3 33/4/4 2/5/5 1/6/6
s off
f 7/1/7 1/6/8 3/7/9 5/8/10
f 58/9/11 57/10/12 59/11/13 60/12/14
f 62/13/15 61/14/16 63/15/17 64/16/18
s 2
f 6/17/19 11/18/20 10/19/21 4/20/22 30/21/23 31/22/24
f 4/20/22 10/19/21 9/23/25 3/7/26
f 5/8/27 12/24/28 11/18/20 6/17/19
s off
f 16/25/29 14/26/30 11/18/31 12/24/32
f 14/26/33 13/27/34 10/19/35 11/18/36
s 2
f 3/7/26 9/23/25 12/24/28 5/8/27
s off
f 13/27/37 15/28/38 9/23/39 10/19/40
f 15/28/41 16/25/42 12/24/43 9/23/44
f 16/25/45 15/28/46 19/29/47 18/30/48
f 17/31/49 14/26/50 16/25/51 18/30/52
f 19/29/53 15/28/54 13/27/55 20/32/56
f 20/32/57 13/27/58 14/26/59 17/31/60
s 3
f 29/33/61 21/34/62 28/35/63
s off
f 18/30/64 22/36/65 28/35/66 21/34/67 17/31/68
f 19/29/69 23/37/70 27/38/71 22/36/72 18/30/73
f 20/32/74 24/39/75 26/40/76 23/37/77 19/29/78
f 17/31/79 21/34/80 25/41/81 24/39/82 20/32/83
s 4
f 29/33/84 23/37/85 26/40/86
s 5
f 29/33/87 22/36/88 27/38/89
s 4
f 24/39/90 29/33/84 26/40/86
s 5
f 23/37/91 29/33/87 27/38/89
s 6
f 21/34/92 29/33/93 25/41/94
f 29/33/93 24/39/95 25/41/94
s 3
f 22/36/96 29/33/61 28/35/63
s 1
f 33/4/4 32/3/3 39/42/97 38/43/98
s off
f 38/43/99 39/42/100 37/44/101 36/45/102
s 7
f 37/44/103 43/46/104 45/47/105 42/48/106 36/45/107
s 8
f 34/49/108 30/21/109 4/20/110 2/5/111 33/4/112
s off
f 38/43/113 36/45/114 34/49/115 33/4/116
s 7
f 36/45/107 42/48/106 46/50/117 40/51/118 34/49/119
s 8
f 8/2/120 6/17/121 31/22/122 35/52/123 32/3/124
s off
f 37/44/125 39/42/126 32/3/127 35/52/128
s 8
f 34/49/108 35/52/123 31/22/122 30/21/109
s 7
f 34/49/119 40/51/118 47/53/129 41/54/130 35/52/131
s 9
f 48/55/132 41/54/133 47/53/134
s 7
f 44/56/135 43/46/104 37/44/103 35/52/131 41/54/130
s 10
f 48/55/136 42/48/137 45/47/138
s 9
f 40/51/139 48/55/132 47/53/134
s 10
f 43/46/140 48/55/136 45/47/138
s 11
f 42/48/141 48/55/142 46/50/143
s 12
f 48/55/144 43/46/145 44/56/146
f 41/54/147 48/55/144 44/56/146
s 11
f 48/55/142 40/51/148 46/50/143
s off
f 3/7/149 1/6/150 49/57/151 50/58/152
f 1/6/153 2/5/154 51/59/155 49/57/156
f 2/5/157 4/20/158 52/60/159 51/59/160
f 4/20/161 3/7/162 50/58/163 52/60/164
f 7/1/165 5/8/166 53/61/167 54/62/168
f 5/8/169 6/17/170 55/63/171 53/61/172
f 6/17/173 8/2/174 56/64/175 55/63/176
f 8/2/177 7/1/178 54/62/179 56/64/180
f 50/58/181 49/57/182 57/10/183 58/9/184
f 49/57/185 51/59/186 59/11/187 57/10/188
f 51/59/189 52/60/190 60/12/191 59/11/192
f 52/60/193 50/58/194 58/9/195 60/12/196
f 54/62/197 53/61/198 61/14/199 62/13/200
f 53/61/201 55/63/202 63/15/203 61/14/204
f 55/63/205 56/64/206 64/16/207 63/15/208
f 56/64/209 54/62/210 62/13/211 64/16/212
